<svg xmlns="http://www.w3.org/2000/svg" viewBox="0 0 300 100"><path d="M237.34 58.735c-3.344-.17-5.256-4.128-5.022-8.173.41-7.129 6.368-14.324 6.368-14.324 1.391 1.27 5.575 8.149 5.348 13.413-.222 5.142-3.352 9.253-6.694 9.084zm3.981-24.866c1.438-1.675 2.425-2.651 2.203-3.812-.222-1.162-4.155-1.967-5.906-.352-5.177-4.108-4.117.704-3.368 1.778-6.116 4.3-10.254 15.623-6.925 24.457 3.255 8.636 13.072 9.7 18.22 3.632 4.556-5.375 3.744-15.253-4.224-25.703M68.528 87.456l1.687-2.021m-1.687 2.02l1.687-2.02m-1.687 2.02l1.687-2.02m-1.687 2.02l1.687-2.02c1.167.963 2.39 1.576 3.873 1.576 1.168 0 1.873-.464 1.873-1.224v-.037c0-.724-.445-1.094-2.614-1.65-2.612-.667-4.3-1.39-4.3-3.967v-.037c0-2.353 1.891-3.91 4.542-3.91 1.89 0 3.502.593 4.818 1.649l-1.483 2.15c-1.15-.797-2.28-1.28-3.374-1.28-1.093 0-1.667.501-1.667 1.131v.037c0 .853.556 1.13 2.798 1.705 2.632.686 4.115 1.631 4.115 3.893v.037c0 2.576-1.964 4.02-4.763 4.02a8.263 8.263 0 01-5.505-2.074m23.874-4.559v-.036c0-2.224-1.631-4.078-3.93-4.078-2.297 0-3.891 1.817-3.891 4.04v.038c0 2.224 1.631 4.077 3.928 4.077 2.299 0 3.893-1.817 3.893-4.04zm-10.806 0v-.036c0-3.689 2.91-6.71 6.913-6.71 4.005 0 6.876 2.984 6.876 6.672v.037c0 3.688-2.91 6.708-6.912 6.708-4.003 0-6.876-2.983-6.876-6.672m17.071-6.523h2.631l6.08 7.99v-7.99h2.817v12.973h-2.428l-6.282-8.247v8.247h-2.818V76.371zm15.162 6.524v-.036c0-3.689 2.874-6.71 6.803-6.71 2.334 0 3.743.63 5.096 1.779l-1.798 2.17c-1-.834-1.89-1.317-3.391-1.317-2.075 0-3.726 1.836-3.726 4.04v.038c0 2.372 1.632 4.115 3.93 4.115 1.038 0 1.964-.26 2.687-.778V84.34h-2.872v-2.465h5.634v5.635c-1.334 1.13-3.169 2.056-5.541 2.056-4.041 0-6.82-2.835-6.82-6.672m22.317 0v-.036c0-3.689 2.78-6.71 6.766-6.71 2.444 0 3.91.815 5.115 2.002l-1.817 2.094c-1.001-.909-2.021-1.465-3.318-1.465-2.187 0-3.763 1.817-3.763 4.041v.037c0 2.224 1.539 4.077 3.763 4.077 1.482 0 2.39-.593 3.41-1.52l1.817 1.835c-1.335 1.426-2.818 2.316-5.32 2.316-3.817 0-6.653-2.947-6.653-6.673m25.226.002v-.036c0-2.224-1.632-4.078-3.929-4.078-2.299 0-3.892 1.817-3.892 4.04v.038c0 2.224 1.63 4.077 3.929 4.077 2.298 0 3.892-1.817 3.892-4.04zm-10.806 0v-.036c0-3.689 2.91-6.71 6.914-6.71s6.876 2.984 6.876 6.672v.037c0 3.688-2.91 6.708-6.913 6.708s-6.876-2.983-6.876-6.672m17.072-6.523h2.632l6.08 7.99v-7.99h2.817v12.973h-2.428l-6.283-8.247v8.247h-2.818V76.371zm18.498 2.632h-3.948v-2.632h10.75v2.632h-3.947v10.341h-2.855v-10.34zm10.103-2.632h9.786v2.54h-6.95v2.63h6.116v2.54h-6.115v2.725h7.042v2.538h-9.879V76.371zm12.625 11.085l1.686-2.021c1.167.963 2.39 1.576 3.874 1.576 1.167 0 1.872-.464 1.872-1.224v-.037c0-.724-.446-1.094-2.614-1.65-2.614-.667-4.3-1.39-4.3-3.967v-.037c0-2.353 1.89-3.91 4.541-3.91 1.89 0 3.503.593 4.818 1.649l-1.483 2.15c-1.149-.797-2.28-1.28-3.373-1.28-1.093 0-1.668.501-1.668 1.131v.037c0 .853.555 1.13 2.798 1.705 2.632.686 4.115 1.631 4.115 3.893v.037c0 2.576-1.964 4.02-4.764 4.02-1.963 0-3.947-.686-5.503-2.074m16.59-8.45h-3.947V76.37h10.75v2.632h-3.949v10.341h-2.853v-10.34zM49.61 16.7c-11.538-.836-24.29 8.72-23.803 21.097.047 1.189 1.052 2.277 2.495 2.277 1.785 0 7.011-.198 7.011-.198S25 48.007 25 57.527c0 5.024 3.769 11.04 11.635 11.04 11.025 0 19.243-9.027 19.227-16.674 0-.582-.669-1.403-1.745-.097-1.709 2.07-10.872 11.482-19.928 11.482-3.04 0-5.685-1.72-5.685-5.355 0-4.76 7.537-14.015 20.494-17.65 3.172-.926 3.437-5.355-.596-5.553-3.964-.195-17.65 1.322-18.641 1.322-.992 0-1.081-.214-.728-1.124.463-1.19 5.487-9.982 20.56-11.635 5.09-.396 4.579-6.252.018-6.583m16.313 14.457c0-2.99-4.44-4.826-6.113-.593-3.22 8.15-4.2 32.85 6.58 32.85 4.734 0 10.772-10.371 10.772-20.493 0-8.348-3.417-13.804-4.14-14.789-.723-.985-1.71-.46-1.578 1.382.132 1.839.657 18.862-4.667 25.041-2.102 2.3-3.653-.096-3.877-2.366-.657-6.639 3.023-16.695 3.023-21.033m49.264 26.53c-3.027 0-4.71-3.909-4.71-8.155 0-7.483 5.381-14.29 5.381-14.29 1.48 1.886 5.045 7.211 5.045 12.604 0 5.393-2.692 9.842-5.716 9.842zm2.42-24.805s1.711-2.324.681-3.634c-1.156-1.478-4.864-1.939-8.338 1.953-4.574 5.123-7.778 15.933-4.315 25.004 3.312 8.671 12.585 9.404 16.882 2.83 3.834-5.865 2.825-15.639-4.91-26.153m-30.417 8.846c.265-3.37.53-6.875.53-6.875s7.536-1.917 10.113-1.652c2.245.23 2.71 1.19 1.568 2.964-2.69 4.178-8.879 5.624-12.21 5.563zm16.178 22.358c-3.224-4.474-7.273-13.431-13.467-18.854 6.28-.397 14.147-5.288 14.147-10.511 0-3.867-4.024-6.655-9.246-6.655-5.223 0-10.982 1.763-13.164 3.085-2.842 1.653-.727 5.552 1.918 4.495 0 0-.992 4.626-1.256 7.073-2.147-.265-2.578.132-2.446.595.133.462 1.057.86 2.116 2.182-.332 2.908-.916 15.842-.784 16.966.133 1.132.815 1.328 1.785.132.86-1.056 2.7-3.613 3.56-13.264.992.858 3.703 4.488 7.008 8.725 4.848 6.214 6.446 6.662 8.438 7.363 1.075.379 2.183-.238 1.393-1.334m80.32-35.16c.176 6.72-5.731 17.402-6.11 25.2-.277 5.684.742 7.983 1.228 8.731.506.784 1.615.852 1.911-.573.883-4.26 6.967-15.487 7.746-24.516.478-5.534-1.238-8.92-3.215-9.561-.882-.285-1.584-.178-1.56.72m22.033-.858c-8.265 0-14.227 2.93-14.227 9.585 0 4.099 3.04 6.92 7.89 7.713 2.82.529 5.565.736 6.566 1.102 1.809.66-2.52 2.743-9.258 7.313-4.603 3.122-7.965 6.42-9.76 9.923-.623 1.212.22 2.37 1.52 1.473 2.527-1.74 8.062-4.639 13.434-7.594 5.112-2.813 9.927-5.903 9.927-9.75 0-3.481-2.613-4.794-4.628-5.024-3.482-.395-11.018-.088-11.018-4.45 0-1.63 2.16-3.77 9.1-3.77 5.355 0 4.815-6.522.454-6.522m10.408 1.214c2.704 5.191-1.898 19.313-1.898 24.678 0 5.365.604 7.257 2.024 8.996.726.89 1.68.357 1.768-.605.44-4.73 5.52-17.565 5.849-23.528.418-7.597-3.333-10.54-5.53-10.727-1.219-.102-2.83.117-2.213 1.186m1.86-7.325c-.137 4.948 8.114 5.745 8.114-.303 0-5.27-4.41-9.63-5.296-10.356-1.376-1.122-3.323-.92-2.864.895 1.055 3.802.094 8.036.047 9.764M274.595 62.9c-1.078-6.645.405-15.195.405-23.25 0-6.152-5.112-9.313-8.144-9.313-3.941 0-6.282 1.777-6.282 1.777.045-1.17.247-2.972.21-3.54-.043-.65-.823-.65-1.949-.043-6.194 3.854-7.09 14.915-7.09 22.58 0 7.668 1.221 10.385 1.349 11.424.124.987 1.336 1.133 1.812.267 3.292-6.411 3.677-18.085 4.802-24.583 1.56-2.122 7.926-2.512 8.187 2.556.265 5.158-.233 18.196 5.042 22.748.712.613 1.813.332 1.657-.623M131.428 35.976c.138-12.36 6.57-16.23 10.073-16.23 4.893 0 6.913 3.735 7.243 5.389.33 1.653 2.182 2.974 2.776.263.596-2.71 6.351-10.974 13.424-10.974 6.479 0 8.722 6.68 8.528 12.363-.53 15.469-20.458 27.814-23.08 35.61-2.336-4.722-19.13-11.547-18.964-26.422zm35.83-25.385c-5.817 0-12.696 4.297-16.861 11.437-1.123-2.578-5.128-5.388-9.886-5.388-3.834 0-14.599 4.793-14.599 20.262 0 19.964 20.199 24.065 24.282 30.27.28.426 1.185.748 1.53-.271 3.257-9.615 28.52-20.48 28.52-40.047 0-10.974-7.168-16.262-12.985-16.262" fill="#fff"/></svg>